<svg id="Layer_1" data-name="Layer 1" xmlns="http://www.w3.org/2000/svg" xmlns:xlink="http://www.w3.org/1999/xlink" viewBox="0 0 132.16 132.16"><defs><linearGradient id="linear-gradient" x1="893.86" y1="540.92" x2="1026.02" y2="540.92" gradientUnits="userSpaceOnUse"><stop offset="0" stop-color="#7cdc00"/><stop offset="1" stop-color="#64c100"/></linearGradient></defs><title>VCS-LOGO</title><path d="M895.4,477.14S976,464.61,1008.66,498c0,0,24.48,28.19,15.3,105.45,0,0-69.38,13.58-103.05-12.53C920.91,590.94,886.22,566.93,895.4,477.14Z" transform="translate(-893.86 -474.84)" style="fill:url(#linear-gradient)"/><path d="M920.91,590.94C954.58,617.05,1024,603.47,1024,603.47a270.45,270.45,0,0,0,2-40c-82.16,12.36-117.42-25.28-132-53.07C895.06,573,920.91,590.94,920.91,590.94Z" transform="translate(-893.86 -474.84)" style="opacity:0.1"/><path d="M931.34,536c-10.57,2.37-18.24,9.43-18.24,17.76,0,8,7.06,14.82,17,17.45,2.91,5.17-2,10.83-2,10.83a13.62,13.62,0,0,0,11.45-9.68c10-.09,18.68-4.23,22.92-10.23C945.51,559.39,932.92,549,931.34,536Z" transform="translate(-893.86 -474.84)" style="fill:#fff"/><path d="M1009.91,532.14c0-14.74-16.73-26.69-37.37-26.69s-37.36,11.95-37.36,26.69,16.47,26.49,36.88,26.68c1.86,5.52,6.2,12.34,16.42,13.87,0,0-7.09-8.11-2.92-15.53C999.78,553.38,1009.91,543.6,1009.91,532.14Zm-50.52,3.3a4,4,0,1,1,4-4A4,4,0,0,1,959.39,535.44Zm13.15,0a4,4,0,1,1,4-4A4,4,0,0,1,972.54,535.44Zm9.12-4a4,4,0,1,1,4,4A4,4,0,0,1,981.66,531.4Z" transform="translate(-893.86 -474.84)" style="fill:#fff"/></svg>